%TF.GenerationSoftware,KiCad,Pcbnew,10.0.6*%
%TF.CreationDate,2026-10-04T17:55:45-05:00*%
%TF.ProjectId,GoodmanHP,476f6f64-6d61-46e4-9850-2e6b69636164,rev?*%
%TF.SameCoordinates,Original*%
%TF.FileFunction,Copper,L5,Inr*%
%TF.FilePolarity,Positive*%
%FSLAX46Y46*%
G04 Gerber Fmt 4.6, Leading zero omitted, Abs format (unit mm)*
G04 Created by KiCad (PCBNEW 10.0.6) date 2026-10-04 17:55:45*
%MOMM*%
%LPD*%
G01*
G04 APERTURE LIST*
%TA.AperFunction,ComponentPad*%
%ADD10O,1.999996X1.099997*%
%TD*%
%TA.AperFunction,ComponentPad*%
%ADD11O,1.799996X1.199997*%
%TD*%
%TA.AperFunction,ComponentPad*%
%ADD12C,2.199995*%
%TD*%
%TA.AperFunction,ComponentPad*%
%ADD13C,1.599996*%
%TD*%
%TA.AperFunction,ComponentPad*%
%ADD14R,1.699996X1.699996*%
%TD*%
%TA.AperFunction,ComponentPad*%
%ADD15C,1.699996*%
%TD*%
%TA.AperFunction,ComponentPad*%
%ADD16C,5.999988*%
%TD*%
%TA.AperFunction,ComponentPad*%
%ADD17R,1.574800X1.699996*%
%TD*%
%TA.AperFunction,ComponentPad*%
%ADD18R,2.499994X2.499994*%
%TD*%
%TA.AperFunction,ComponentPad*%
%ADD19C,2.499994*%
%TD*%
%TA.AperFunction,ViaPad*%
%ADD20C,0.500000*%
%TD*%
%TA.AperFunction,ViaPad*%
%ADD21C,0.610000*%
%TD*%
%TA.AperFunction,ViaPad*%
%ADD22C,0.800000*%
%TD*%
%TA.AperFunction,ViaPad*%
%ADD23C,1.200000*%
%TD*%
%TA.AperFunction,ViaPad*%
%ADD24C,0.810000*%
%TD*%
%TA.AperFunction,ViaPad*%
%ADD25C,1.000000*%
%TD*%
%TA.AperFunction,Conductor*%
%ADD26C,0.200000*%
%TD*%
%TA.AperFunction,Conductor*%
%ADD27C,1.200000*%
%TD*%
%TA.AperFunction,Conductor*%
%ADD28C,0.500000*%
%TD*%
G04 APERTURE END LIST*
D10*
%TO.N,GND*%
%TO.C,USB1*%
X93094883Y-23171984D03*
D11*
X97295026Y-23171984D03*
D10*
X93094883Y-14522015D03*
D11*
X97295026Y-14522015D03*
%TD*%
D12*
%TO.N,24VAC*%
%TO.C,U10*%
X76936799Y-91110005D03*
X76936799Y-96189994D03*
%TD*%
%TO.N,24VAC*%
%TO.C,U13*%
X82727999Y-91110005D03*
X82727999Y-96189994D03*
%TD*%
%TO.N,O*%
%TO.C,U24*%
X13132005Y-65328999D03*
X18211994Y-65328999D03*
%TD*%
D13*
%TO.N,$2N846*%
%TO.C,C5*%
X85267999Y-55041999D03*
%TO.N,GND*%
X80188000Y-55041999D03*
%TD*%
D14*
%TO.N,ZX*%
%TO.C,U43*%
X47041000Y-48310999D03*
D15*
%TO.N,AGND*%
X49580999Y-48310999D03*
%TD*%
D14*
%TO.N,GND*%
%TO.C,U51*%
X52247999Y-13004999D03*
D15*
%TO.N,MTCK*%
X49708000Y-13004999D03*
%TD*%
D12*
%TO.N,GND*%
%TO.C,U16*%
X90856005Y-71297999D03*
X95935994Y-71297999D03*
%TD*%
%TO.N,GND*%
%TO.C,U19*%
X90856005Y-76377999D03*
X95935994Y-76377999D03*
%TD*%
%TO.N,FAN-OUT*%
%TO.C,U20*%
X14275005Y-48183999D03*
X19354994Y-48183999D03*
%TD*%
%TO.N,24VAC*%
%TO.C,U6*%
X71018599Y-90942658D03*
X71018599Y-96022646D03*
%TD*%
D16*
%TO.N,AGND*%
%TO.C,U50*%
X35611126Y-78282999D03*
%TD*%
D14*
%TO.N,GND*%
%TO.C,H2*%
X56439000Y-33070999D03*
D15*
%TO.N,5V*%
X58979000Y-33070999D03*
%TO.N,DN1*%
X61518999Y-33070999D03*
%TO.N,DP1*%
X64058999Y-33070999D03*
%TD*%
D12*
%TO.N,W*%
%TO.C,U9*%
X40563999Y-91237005D03*
X40563999Y-96316994D03*
%TD*%
%TO.N,FAN-PWR*%
%TO.C,U17*%
X14275005Y-37642999D03*
X19354994Y-37642999D03*
%TD*%
%TO.N,GND*%
%TO.C,U23*%
X90856005Y-85902999D03*
X95935994Y-85902999D03*
%TD*%
D14*
%TO.N,GND*%
%TO.C,U46*%
X86410999Y-82601254D03*
D15*
X86410999Y-85140999D03*
%TO.N,IO14*%
X83870999Y-82601000D03*
%TO.N,GND*%
X83870999Y-85140999D03*
%TO.N,IO15*%
X81330999Y-82601000D03*
%TO.N,IO48*%
X81330999Y-85140999D03*
%TO.N,IO16*%
X78790999Y-82601000D03*
%TO.N,IO47*%
X78790999Y-85140999D03*
%TO.N,IO17*%
X76251000Y-82601000D03*
%TO.N,3.3V*%
X76251000Y-85140999D03*
%TO.N,IO18*%
X73711000Y-82601000D03*
%TO.N,3.3V*%
X73711000Y-85140999D03*
X71171000Y-82601000D03*
%TO.N,5V*%
X71171000Y-85140999D03*
%TD*%
D14*
%TO.N,GND*%
%TO.C,H1*%
X97713999Y-48945999D03*
D15*
%TO.N,VI2C*%
X97713999Y-46405999D03*
%TO.N,SDA2*%
X97713999Y-43866000D03*
%TO.N,SCL2*%
X97713999Y-41326000D03*
%TD*%
D12*
%TO.N,O*%
%TO.C,U22*%
X13132005Y-70281999D03*
X18211994Y-70281999D03*
%TD*%
%TO.N,DFT*%
%TO.C,U5*%
X17703999Y-91237005D03*
X17703999Y-96316994D03*
%TD*%
%TO.N,GND*%
%TO.C,U21*%
X90856005Y-80949999D03*
X95935994Y-80949999D03*
%TD*%
%TO.N,CANH*%
%TO.C,U2*%
X52829786Y-96066976D03*
X52829786Y-90986988D03*
%TD*%
D17*
%TO.N,GND*%
%TO.C,H3*%
X34341000Y-10464999D03*
D15*
%TO.N,3.3V*%
X36881000Y-10464999D03*
%TO.N,IO2*%
X39421000Y-10464999D03*
%TO.N,MTMS*%
X41960999Y-10464999D03*
%TO.N,IO1*%
X44500999Y-10464999D03*
%TO.N,IO46*%
X47040999Y-10464999D03*
%TO.N,IO45*%
X49580999Y-10464999D03*
%TD*%
D12*
%TO.N,LT*%
%TO.C,U12*%
X34848999Y-91237005D03*
X34848999Y-96316994D03*
%TD*%
%TO.N,LPS*%
%TO.C,U1*%
X23418999Y-91237005D03*
X23418999Y-96316994D03*
%TD*%
%TO.N,CANL*%
%TO.C,U7*%
X59105999Y-96062994D03*
X59105999Y-90983006D03*
%TD*%
%TO.N,24VAC*%
%TO.C,U4*%
X65354399Y-90983006D03*
X65354399Y-96062994D03*
%TD*%
%TO.N,E-GND*%
%TO.C,U27*%
X20625005Y-22021999D03*
X25704994Y-22021999D03*
%TD*%
%TO.N,CNT*%
%TO.C,U25*%
X29133999Y-91237005D03*
X29133999Y-96316994D03*
%TD*%
%TO.N,O-RV*%
%TO.C,U26*%
X46278999Y-91237005D03*
X46278999Y-96316994D03*
%TD*%
D14*
%TO.N,GND*%
%TO.C,U42*%
X74346000Y-10464999D03*
D15*
%TO.N,3.3V*%
X76886000Y-10464999D03*
%TO.N,MTDO*%
X79426000Y-10464999D03*
%TO.N,MTDI*%
X81965999Y-10464999D03*
%TO.N,MTCK*%
X84505999Y-10464999D03*
%TO.N,MTMS*%
X87045999Y-10464999D03*
%TD*%
D18*
%TO.N,GND*%
%TO.C,CN1*%
X57836000Y-42849999D03*
D19*
%TO.N,3.3V*%
X61645999Y-42849999D03*
%TO.N,1WIRE*%
X65455999Y-42849999D03*
%TD*%
D14*
%TO.N,3.3V*%
%TO.C,H4*%
X96824999Y-53009999D03*
D15*
%TO.N,VI2C*%
X94284999Y-53009999D03*
%TO.N,5V*%
X91745000Y-53009999D03*
%TD*%
D12*
%TO.N,Y*%
%TO.C,U18*%
X12116005Y-85267999D03*
X17195994Y-85267999D03*
%TD*%
D14*
%TO.N,FAN-PWR*%
%TO.C,U35*%
X25958999Y-34554994D03*
D15*
%TO.N,$4N87499*%
X25958999Y-29555005D03*
%TD*%
D12*
%TO.N,Y*%
%TO.C,U15*%
X11988999Y-91237005D03*
X11988999Y-96316994D03*
%TD*%
D20*
%TO.N,*%
X65611500Y-24899500D03*
%TO.N,GND*%
X44628000Y-36881000D03*
D21*
X67488000Y-59233000D03*
X48400000Y-73200000D03*
D20*
X86030000Y-46406000D03*
X84379000Y-34087000D03*
X66986000Y-38151000D03*
X83919000Y-28372000D03*
D21*
X54153000Y-11481000D03*
D20*
X90348000Y-24308000D03*
D21*
X54788000Y-15291000D03*
D20*
X43926500Y-43797000D03*
D21*
X43993000Y-51994000D03*
X80696000Y-12751000D03*
X57424500Y-54824500D03*
D20*
X45771000Y-37135000D03*
D21*
X48946000Y-24943000D03*
X63600000Y-73100000D03*
X58569000Y-28399000D03*
D20*
X82220000Y-24308000D03*
X83919000Y-26967000D03*
D21*
X57709000Y-12116000D03*
D20*
X95809000Y-9703000D03*
D21*
X76886000Y-45898000D03*
X49454000Y-25832000D03*
X28141000Y-54153000D03*
X9576000Y-54153000D03*
D20*
X68510000Y-38151000D03*
D21*
X43358000Y-16053000D03*
X39793000Y-18974000D03*
D20*
X93142000Y-9703000D03*
X49448000Y-37008000D03*
D21*
X89713000Y-64821000D03*
D20*
X33833000Y-58344000D03*
D21*
X68758000Y-16610000D03*
X78791000Y-54026000D03*
X49200000Y-93777000D03*
X70917000Y-31547000D03*
X55609000Y-12218500D03*
X79934000Y-61646000D03*
D20*
X87046000Y-39421000D03*
X48438000Y-36754000D03*
D21*
X60831500Y-13583000D03*
X50089000Y-22969500D03*
X71171000Y-12751000D03*
X43993000Y-50089000D03*
X57963000Y-15037000D03*
X75235000Y-20371000D03*
D20*
X66726000Y-37389000D03*
D21*
X21396000Y-18974000D03*
X52502000Y-50851000D03*
D20*
X41199000Y-61900000D03*
X98095000Y-21006000D03*
D21*
X59438000Y-13005000D03*
D20*
X85313500Y-18596000D03*
D21*
X62535000Y-10973000D03*
D20*
X35865000Y-61011000D03*
X9576000Y-86774500D03*
X24943000Y-60249000D03*
X90856000Y-9703000D03*
D21*
X9576000Y-68687000D03*
X61900000Y-10592000D03*
D20*
X84379000Y-32055000D03*
X87808000Y-18593000D03*
D21*
X71978000Y-46107000D03*
X48440500Y-50091500D03*
X46000000Y-73200000D03*
X76886000Y-46708500D03*
X44501000Y-30150000D03*
X94793000Y-13386000D03*
X37423500Y-54153000D03*
X47961000Y-21011000D03*
D20*
X76773000Y-35542500D03*
D21*
X25047000Y-54153000D03*
D20*
X80696000Y-48311000D03*
D21*
X51300000Y-54000000D03*
X55677000Y-13767000D03*
X78813000Y-48276000D03*
X57455000Y-14656000D03*
X72187000Y-12751000D03*
X44501000Y-27610000D03*
D20*
X53772000Y-36881000D03*
D21*
X36727000Y-18974000D03*
X76979500Y-47422000D03*
X54153000Y-10211000D03*
D20*
X91364000Y-14910000D03*
D21*
X59741000Y-10973000D03*
D20*
X47168000Y-43866000D03*
X89078000Y-20752000D03*
D21*
X68758000Y-15080000D03*
X33660500Y-18957000D03*
D20*
X84760000Y-28372000D03*
X86030000Y-47168000D03*
X92133000Y-40299500D03*
D21*
X97206000Y-24435000D03*
D20*
X66726000Y-36754000D03*
X27483000Y-80315000D03*
D21*
X58344000Y-11989000D03*
X64186000Y-11862000D03*
D20*
X79172000Y-39675000D03*
D21*
X24462000Y-18974000D03*
D20*
X88697000Y-9703000D03*
X86538000Y-42850000D03*
X45898000Y-35230000D03*
X14656000Y-86792000D03*
D21*
X98476000Y-66218000D03*
D20*
X44770000Y-32907500D03*
D21*
X57455000Y-13386000D03*
X58946000Y-9576000D03*
X77775000Y-64694000D03*
D20*
X94412000Y-16688000D03*
D21*
X56721000Y-16307000D03*
D20*
X74600000Y-33706000D03*
D21*
X44501000Y-25197000D03*
X61392000Y-10211000D03*
D20*
X61646000Y-25197000D03*
X90602000Y-44247000D03*
D21*
X69012000Y-50724000D03*
X56721000Y-16942000D03*
X27528500Y-18974000D03*
X77521000Y-47930000D03*
X49200000Y-97206000D03*
D20*
X67742000Y-38151000D03*
D21*
X58852000Y-12624000D03*
X22929000Y-18974000D03*
X59614000Y-10338000D03*
X9576000Y-60267500D03*
X57455000Y-14021000D03*
X77140000Y-31547000D03*
X31235500Y-54153000D03*
X59614000Y-9703000D03*
D20*
X83124000Y-18593000D03*
X82242000Y-25736000D03*
D21*
X81432000Y-56058000D03*
X81331000Y-64186000D03*
X61265000Y-9449000D03*
X19863000Y-18974000D03*
D20*
X79194500Y-40310000D03*
X84887000Y-37516000D03*
D21*
X67615000Y-15496000D03*
D20*
X9576000Y-80188000D03*
D21*
X54153000Y-46660000D03*
X9576000Y-64604500D03*
X38260000Y-18974000D03*
X35193500Y-18974000D03*
X15799000Y-53518000D03*
D20*
X88443000Y-18339000D03*
D21*
X54153000Y-10846000D03*
X81331000Y-62789000D03*
X26340000Y-56820000D03*
X25995500Y-18974000D03*
X93777000Y-66726000D03*
X55169000Y-13386000D03*
D20*
X88824000Y-16434000D03*
D21*
X52629000Y-16434000D03*
X80492000Y-24308000D03*
X69393000Y-27864000D03*
X58979000Y-10211000D03*
X78156000Y-16434000D03*
D20*
X83109000Y-19355000D03*
X84760000Y-42850000D03*
D21*
X39548000Y-54026000D03*
D20*
X98095000Y-9703000D03*
D21*
X92253000Y-13259000D03*
D20*
X56947000Y-36627000D03*
D21*
X34329500Y-54153000D03*
D20*
X83919000Y-46406000D03*
D21*
X62789000Y-13259000D03*
D20*
X45390000Y-41890000D03*
D21*
X70028000Y-60503000D03*
X21952500Y-53518000D03*
D20*
X45390000Y-45771000D03*
D21*
X58979000Y-11989000D03*
D20*
X82601000Y-37897000D03*
X9449000Y-73203000D03*
D21*
X49581000Y-25197000D03*
X14910000Y-54661000D03*
X59360000Y-11481000D03*
X9576000Y-56185000D03*
X54153000Y-9576000D03*
X58979000Y-10846000D03*
X54973500Y-12091500D03*
X78132500Y-48116500D03*
X52502000Y-82093000D03*
X12624000Y-53518000D03*
X57773500Y-15620500D03*
X75997000Y-20033000D03*
X53010000Y-15799000D03*
X56000000Y-73400000D03*
X44501000Y-23038000D03*
D20*
X98730000Y-27483000D03*
D21*
X55042000Y-12751000D03*
D20*
X84379000Y-17450000D03*
D21*
X61600000Y-53800000D03*
X55804000Y-15037000D03*
D20*
X93015000Y-24562000D03*
X98084500Y-18847000D03*
X84379000Y-19355000D03*
D21*
X68250000Y-15496000D03*
X55804000Y-14402000D03*
X63551000Y-11862000D03*
D20*
X84760000Y-26975000D03*
D21*
X48829500Y-22969500D03*
D20*
X86919000Y-37389000D03*
D21*
X62408000Y-13767000D03*
D20*
X78537000Y-40310000D03*
X94920000Y-22911000D03*
X67400000Y-54100000D03*
D21*
X67996000Y-34087000D03*
X24435000Y-97968000D03*
D20*
X83109000Y-17450000D03*
D21*
X30594500Y-18974000D03*
X68123000Y-16610000D03*
X55423000Y-15545000D03*
X63043000Y-11354000D03*
D20*
X82474000Y-48692000D03*
X57582000Y-36627000D03*
D21*
X18985500Y-53518000D03*
X78791000Y-50724000D03*
X29061500Y-18974000D03*
X94920000Y-27483000D03*
D20*
X82991000Y-46406000D03*
X84359500Y-18596000D03*
D21*
X73711000Y-27864000D03*
X54280000Y-12116000D03*
X41326000Y-18974000D03*
D20*
X14275000Y-82982000D03*
X90094000Y-27483000D03*
X98095000Y-16942000D03*
D21*
X32127500Y-18957000D03*
X50978000Y-31166000D03*
X57582000Y-12751000D03*
%TO.N,3.3V*%
X54192000Y-17577000D03*
D20*
X89793000Y-40977500D03*
X88581000Y-39687500D03*
D21*
X58838000Y-14656000D03*
D20*
X75362000Y-21768000D03*
X64636500Y-14656000D03*
X34214000Y-55423000D03*
D22*
X46055500Y-26786500D03*
D20*
X79963000Y-17577000D03*
X91745000Y-66345000D03*
X83744000Y-31166000D03*
X58471000Y-37897000D03*
X69200000Y-58558500D03*
X40818000Y-13259000D03*
X49581000Y-24066500D03*
X79934000Y-20625000D03*
X65500000Y-58558500D03*
%TO.N,24VAC*%
X27900000Y-75400000D03*
D23*
X65456000Y-77394000D03*
D20*
X52600000Y-77100000D03*
X46445000Y-77100000D03*
%TO.N,UD+*%
X89332000Y-18085000D03*
X87681000Y-20593000D03*
%TO.N,DTR*%
X49513000Y-21306500D03*
X87681000Y-17577000D03*
%TO.N,RTS*%
X79901500Y-16593500D03*
X51232000Y-19416000D03*
%TO.N,IO0*%
X53626500Y-21770500D03*
X55261000Y-25219500D03*
%TO.N,LT*%
X26594000Y-75489000D03*
%TO.N,IO6*%
X56820000Y-21034000D03*
X64059000Y-47549000D03*
%TO.N,IO17*%
X33833000Y-62662000D03*
X74346000Y-56566000D03*
X62044000Y-22138000D03*
X19990000Y-75997000D03*
X74358000Y-74460000D03*
X69139000Y-30023000D03*
X63346000Y-28190000D03*
%TO.N,IO18*%
X63349000Y-27483000D03*
X17450000Y-55430500D03*
X70028000Y-29388000D03*
X75235000Y-55931000D03*
X74969500Y-75275500D03*
X62789000Y-22276000D03*
X38913000Y-56820000D03*
%TO.N,RESET*%
X57062500Y-24954500D03*
X53645000Y-19863000D03*
D22*
%TO.N,AGND*%
X89840000Y-88824000D03*
D20*
%TO.N,IO16*%
X71355500Y-57223500D03*
X61519000Y-23927000D03*
X73688000Y-78104000D03*
X41834000Y-57582000D03*
X37625500Y-64694000D03*
%TO.N,URX*%
X61374500Y-15308000D03*
X75362000Y-16053000D03*
%TO.N,CNT*%
X46237000Y-81893000D03*
D22*
%TO.N,5V*%
X53882000Y-35191000D03*
D24*
X96698000Y-11735000D03*
D20*
X76632000Y-48565000D03*
X58090000Y-35103000D03*
D21*
X71298000Y-38405000D03*
X49962000Y-59487000D03*
X71298000Y-37643000D03*
D20*
%TO.N,ZX*%
X41580000Y-53137000D03*
D25*
%TO.N,FAN-OUT*%
X35670000Y-48170000D03*
X37393000Y-48184000D03*
X33786000Y-48184000D03*
%TO.N,$4N1700*%
X31166000Y-25555000D03*
X31166000Y-43357000D03*
D20*
%TO.N,MISO*%
X59992000Y-22530000D03*
X85649000Y-23165000D03*
X84887000Y-35230000D03*
%TO.N,MTCK*%
X65925000Y-15545000D03*
%TO.N,IO15*%
X40945000Y-59995000D03*
X70663000Y-57455000D03*
X61392000Y-22217500D03*
X60566000Y-37634000D03*
X75362000Y-78791000D03*
X40564000Y-65837000D03*
X60884000Y-30150000D03*
%TO.N,DAT2*%
X79426000Y-23673000D03*
X82246000Y-27483000D03*
X80696000Y-27483000D03*
%TO.N,UTX*%
X77648000Y-18593000D03*
X61192000Y-17334000D03*
%TO.N,CANL*%
X97587000Y-57963000D03*
X91872000Y-56439000D03*
%TO.N,CANH*%
X90602000Y-56439000D03*
%TO.N,$2N15657*%
X83805000Y-48438000D03*
X80188000Y-49433000D03*
%TO.N,$4N92212*%
X52500000Y-59300000D03*
X54100000Y-54650000D03*
%TO.N,MOSI*%
X59192000Y-22542500D03*
X83236000Y-23673000D03*
X80315000Y-30785000D03*
%TO.N,IO3*%
X58836500Y-20060000D03*
X26975000Y-55042000D03*
%TO.N,W*%
X50216000Y-88062000D03*
%TO.N,$4N92184*%
X59800000Y-59200000D03*
X64700000Y-54950000D03*
%TO.N,IO14*%
X87681000Y-67615000D03*
X60191000Y-24112000D03*
%TO.N,IO48*%
X64059000Y-19536000D03*
X65309500Y-26615500D03*
X66615500Y-26594000D03*
%TO.N,IO47*%
X65621000Y-19396000D03*
%TO.N,SCL*%
X89078000Y-41199000D03*
X79045000Y-36500000D03*
X80528500Y-37931500D03*
X57201000Y-22336000D03*
%TO.N,$3N98171*%
X33198000Y-72949000D03*
X24054000Y-81331000D03*
%TO.N,$4N87499*%
X38786000Y-29515000D03*
%TO.N,$3N98167*%
X28499000Y-81839000D03*
X36119000Y-73076000D03*
%TO.N,SDA*%
X86767000Y-40269500D03*
X67831500Y-24726500D03*
X58639500Y-21882000D03*
%TO.N,1WIRE*%
X63619000Y-36070000D03*
X63565000Y-22516000D03*
%TO.N,$4N92201*%
X46400000Y-54700000D03*
X46100000Y-59900000D03*
%TO.N,IO2*%
X58852000Y-19222000D03*
%TO.N,MTMS*%
X61992000Y-16942000D03*
X68121500Y-11310500D03*
%TO.N,IO1*%
X56820000Y-19136000D03*
%TO.N,IO46*%
X60392000Y-17069000D03*
%TO.N,IO45*%
X60630000Y-15545000D03*
%TO.N,IO7*%
X70790000Y-49200000D03*
X56439000Y-21663000D03*
%TO.N,SPICS0*%
X74981000Y-16688000D03*
X66408500Y-21704500D03*
%TO.N,SPIQ*%
X72187000Y-14783000D03*
X64059000Y-20371000D03*
%TO.N,SPIWP*%
X63794000Y-21387000D03*
X70917000Y-15037000D03*
%TO.N,SPICLK*%
X65710000Y-20879000D03*
X71182500Y-20890500D03*
%TO.N,SPCS*%
X57836000Y-23292000D03*
X84252000Y-29701000D03*
%TO.N,IO38*%
X66726000Y-18593000D03*
X88189000Y-64059000D03*
%TO.N,E-GND*%
X39500000Y-46914000D03*
%TO.N,O-RV*%
X57725000Y-87808000D03*
D21*
%TO.N,IO4*%
X44501000Y-22022000D03*
D20*
X54809000Y-19730000D03*
%TO.N,MTDO*%
X63192000Y-16942000D03*
%TO.N,MTDI*%
X69325000Y-11106000D03*
X62413000Y-15610000D03*
%TO.N,SCLK*%
X57703000Y-24058500D03*
X80714500Y-33089500D03*
%TO.N,IO5*%
X55296000Y-48057000D03*
X55832500Y-20849500D03*
%TD*%
%TO.N,DTR*%
D26*
X63586000Y-20885000D02*
X63164500Y-21306500D01*
X57505500Y-21306500D02*
X56647000Y-22165000D01*
X65831000Y-20377000D02*
X64914000Y-20377000D01*
X53380500Y-21306500D02*
X49513000Y-21306500D01*
X87681000Y-17577000D02*
X84962000Y-17577000D01*
X84962000Y-17577000D02*
X84460000Y-18079000D01*
X55334500Y-21268500D02*
X53418500Y-21268500D01*
X56231000Y-22165000D02*
X55334500Y-21268500D01*
X68129000Y-18079000D02*
X84460000Y-18079000D01*
X63164500Y-21306500D02*
X57505500Y-21306500D01*
X56647000Y-22165000D02*
X56231000Y-22165000D01*
X64406000Y-20885000D02*
X63586000Y-20885000D01*
X68129000Y-18079000D02*
X65831000Y-20377000D01*
X64914000Y-20377000D02*
X64406000Y-20885000D01*
X53418500Y-21268500D02*
X53380500Y-21306500D01*
%TO.N,AGND*%
D27*
X48311000Y-51740000D02*
X48311000Y-70155000D01*
X57850000Y-79694000D02*
X57850000Y-79948000D01*
X65742500Y-87554000D02*
X88570000Y-87554000D01*
X65742500Y-87554000D02*
X58136500Y-79948000D01*
X58136500Y-79948000D02*
X57850000Y-79948000D01*
X88570000Y-87554000D02*
X89840000Y-88824000D01*
X48311000Y-70155000D02*
X43845000Y-70155000D01*
X49581000Y-48311000D02*
X49581000Y-50470000D01*
X48311000Y-70155000D02*
X57850000Y-79694000D01*
X43845000Y-70155000D02*
X35500000Y-78500000D01*
X49581000Y-50470000D02*
X48311000Y-51740000D01*
%TO.N,IO16*%
D26*
X77408500Y-81218500D02*
X78791000Y-82601000D01*
X76802500Y-81218500D02*
X73688000Y-78104000D01*
X76802500Y-81218500D02*
X77408500Y-81218500D01*
%TO.N,MTCK*%
X58725000Y-18593000D02*
X53391000Y-18593000D01*
X65925000Y-15545000D02*
X63385000Y-18085000D01*
X49835000Y-15037000D02*
X49835000Y-13132000D01*
X53391000Y-18593000D02*
X49835000Y-15037000D01*
X63385000Y-18085000D02*
X59233000Y-18085000D01*
X59233000Y-18085000D02*
X58725000Y-18593000D01*
%TO.N,$4N87499*%
D28*
X25959000Y-29555000D02*
X34301000Y-29555000D01*
X34301000Y-29555000D02*
X34341000Y-29515000D01*
X34341000Y-29515000D02*
X38786000Y-29515000D01*
%TO.N,IO1*%
D26*
X53172000Y-19136000D02*
X44501000Y-10465000D01*
X56820000Y-19136000D02*
X53172000Y-19136000D01*
%TO.N,IO45*%
X53899000Y-16307000D02*
X55740500Y-18148500D01*
X53899000Y-15441000D02*
X53899000Y-16307000D01*
X49581000Y-10465000D02*
X50978000Y-11862000D01*
X58534500Y-18148500D02*
X55740500Y-18148500D01*
X50978000Y-11862000D02*
X50978000Y-14148000D01*
X50978000Y-14148000D02*
X51613000Y-14783000D01*
X53342000Y-14783000D02*
X53899000Y-15441000D01*
X60630000Y-15545000D02*
X60630000Y-16053000D01*
X60630000Y-16053000D02*
X58534500Y-18148500D01*
X51613000Y-14783000D02*
X53342000Y-14783000D01*
%TD*%
M02*
