%TF.GenerationSoftware,KiCad,Pcbnew,10.0.6*%
%TF.CreationDate,2026-10-04T17:55:45-05:00*%
%TF.ProjectId,GoodmanHP,476f6f64-6d61-46e4-9850-2e6b69636164,rev?*%
%TF.SameCoordinates,Original*%
%TF.FileFunction,Paste,Top*%
%TF.FilePolarity,Positive*%
%FSLAX46Y46*%
G04 Gerber Fmt 4.6, Leading zero omitted, Abs format (unit mm)*
G04 Created by KiCad (PCBNEW 10.0.6) date 2026-10-04 17:55:45*
%MOMM*%
%LPD*%
G01*
G04 APERTURE LIST*
G04 Aperture macros list*
%AMRotRect*
0 Rectangle, with rotation*
0 The origin of the aperture is its center*
0 $1 length*
0 $2 width*
0 $3 Rotation angle, in degrees counterclockwise*
0 Add horizontal line*
21,1,$1,$2,0,0,$3*%
G04 Aperture macros list end*
%ADD10R,1.099997X0.550011*%
%ADD11R,1.099997X0.299999*%
%ADD12R,0.303123X0.324002*%
%ADD13R,0.368427X0.324002*%
%ADD14R,1.999996X1.799996*%
%ADD15R,1.499997X0.599998*%
%ADD16R,2.399995X2.799994*%
%ADD17R,1.190091X1.727987*%
%ADD18R,1.250010X0.699998*%
%ADD19R,2.047494X2.240991*%
%ADD20R,0.324002X0.303123*%
%ADD21R,0.399999X0.699998*%
%ADD22R,1.485011X1.727987*%
%ADD23R,1.132535X1.377010*%
%ADD24R,1.999996X5.299989*%
%ADD25R,0.324002X0.368427*%
%ADD26R,1.037488X0.532003*%
%ADD27R,1.350010X1.410004*%
%ADD28R,1.199997X1.399997*%
%ADD29R,1.199997X0.950010*%
%ADD30R,1.599996X2.999994*%
%ADD31R,5.799988X6.199987*%
%ADD32R,0.499999X0.540004*%
%ADD33R,1.634998X2.699994*%
%ADD34R,0.790092X0.540004*%
%ADD35R,1.410004X1.350010*%
%ADD36R,0.699998X0.999998*%
%ADD37R,1.727987X1.190091*%
%ADD38R,0.980008X1.810004*%
%ADD39R,0.999998X0.799998*%
%ADD40R,0.799998X1.199997*%
%ADD41R,0.806475X0.864006*%
%ADD42R,0.399999X0.640003*%
%ADD43R,1.485011X3.456000*%
%ADD44R,0.799998X0.999998*%
%ADD45R,0.540004X0.790092*%
%ADD46R,1.377010X1.132535*%
%ADD47R,1.727987X1.485011*%
%ADD48R,3.499992X1.799996*%
%ADD49R,1.799996X2.099995*%
%ADD50R,1.780006X1.799996*%
%ADD51R,0.532003X1.037488*%
%ADD52R,1.282522X2.807995*%
%ADD53R,0.699998X0.259994*%
%ADD54R,0.950010X1.199997*%
%ADD55R,0.699998X1.250010*%
%ADD56R,0.980008X2.469997*%
%ADD57R,3.599992X2.469997*%
%ADD58O,0.629996X2.250008*%
%ADD59O,0.629996X1.864995*%
%ADD60R,0.532003X0.989990*%
%ADD61R,0.799998X1.399997*%
%ADD62R,1.099997X2.199995*%
%ADD63R,0.999998X1.050010*%
%ADD64R,1.499997X0.799998*%
%ADD65R,1.999996X1.450009*%
%ADD66RotRect,0.899998X0.799998X322.913000*%
%ADD67R,1.199997X2.199995*%
%ADD68R,0.664997X0.199999*%
%ADD69R,0.199999X0.664997*%
%ADD70R,3.999992X3.999992*%
%ADD71R,2.099995X1.799996*%
G04 APERTURE END LIST*
D10*
%TO.C,USB1*%
X92544973Y-22047018D03*
X92544973Y-21246918D03*
D11*
X92544973Y-20596932D03*
X92544973Y-20096806D03*
X92544973Y-19596934D03*
X92544973Y-19097062D03*
X92544973Y-18596937D03*
X92544973Y-18097065D03*
X92544973Y-17596939D03*
X92544973Y-17096813D03*
D10*
X92544973Y-16446827D03*
X92544973Y-15646981D03*
%TD*%
D12*
%TO.C,R65*%
X90462553Y-19100999D03*
X89979446Y-19100999D03*
%TD*%
D13*
%TO.C,C52*%
X79319319Y-20624999D03*
X78770680Y-20624999D03*
%TD*%
D14*
%TO.C,D3*%
X83838995Y-63550999D03*
X79839004Y-63550999D03*
%TD*%
D15*
%TO.C,U49*%
X86493930Y-20592995D03*
X86493930Y-19592997D03*
X86493930Y-18592999D03*
X86493930Y-17593002D03*
X86493930Y-16593004D03*
X80994069Y-16593004D03*
X80994069Y-17593002D03*
X80994069Y-18592999D03*
X80994069Y-19592997D03*
X80994069Y-20592995D03*
D16*
X83744126Y-18592999D03*
%TD*%
D17*
%TO.C,F4*%
X43554995Y-75400000D03*
X46445006Y-75400000D03*
%TD*%
D18*
%TO.C,Q5*%
X51375002Y-21453040D03*
X51375002Y-23352959D03*
X53374997Y-22402999D03*
%TD*%
D19*
%TO.C,D17*%
X30408692Y-84699999D03*
X35591307Y-84699999D03*
%TD*%
D20*
%TO.C,R37*%
X55000001Y-59041554D03*
X55000001Y-58558447D03*
%TD*%
D12*
%TO.C,R38*%
X56958445Y-52199998D03*
X57441552Y-52199998D03*
%TD*%
D21*
%TO.C,D9*%
X23704090Y-78917999D03*
X24404113Y-78917999D03*
%TD*%
%TO.C,D13*%
X19640089Y-58597999D03*
X20340112Y-58597999D03*
%TD*%
D18*
%TO.C,Q6*%
X51375002Y-18151040D03*
X51375002Y-20050959D03*
X53374997Y-19100999D03*
%TD*%
D13*
%TO.C,C48*%
X74833680Y-23291999D03*
X75382319Y-23291999D03*
%TD*%
D20*
%TO.C,R61*%
X49072999Y-20993553D03*
X49072999Y-20510446D03*
%TD*%
D22*
%TO.C,FB1*%
X97782579Y-93141999D03*
X94597420Y-93141999D03*
%TD*%
D23*
%TO.C,R15*%
X22513997Y-84505999D03*
X20514002Y-84505999D03*
%TD*%
D13*
%TO.C,C22*%
X70769680Y-58851999D03*
X71318319Y-58851999D03*
%TD*%
%TO.C,C41*%
X88803680Y-24307999D03*
X89352319Y-24307999D03*
%TD*%
D24*
%TO.C,F1*%
X85011992Y-75234999D03*
X78412057Y-75234999D03*
%TD*%
D25*
%TO.C,C50*%
X60375999Y-9555680D03*
X60375999Y-10104319D03*
%TD*%
D20*
%TO.C,R53*%
X62661999Y-25946553D03*
X62661999Y-25463446D03*
%TD*%
D12*
%TO.C,R11*%
X13906446Y-82092999D03*
X14389553Y-82092999D03*
%TD*%
D26*
%TO.C,Q11*%
X45001344Y-70949959D03*
X45001344Y-69050040D03*
X42798657Y-69999999D03*
%TD*%
D13*
%TO.C,C46*%
X90073680Y-39801999D03*
X90622319Y-39801999D03*
%TD*%
D27*
%TO.C,C4*%
X74472999Y-43849997D03*
X74472999Y-41850002D03*
%TD*%
D12*
%TO.C,R62*%
X79286553Y-19608999D03*
X78803446Y-19608999D03*
%TD*%
D13*
%TO.C,C36*%
X55910680Y-13004999D03*
X56459319Y-13004999D03*
%TD*%
D26*
%TO.C,Q12*%
X48301342Y-70849959D03*
X48301342Y-68950040D03*
X46098655Y-69899999D03*
%TD*%
D28*
%TO.C,D4*%
X71219971Y-36627025D03*
X67819928Y-36627025D03*
%TD*%
D12*
%TO.C,R20*%
X15684446Y-54660999D03*
X16167553Y-54660999D03*
%TD*%
D29*
%TO.C,D7*%
X21055021Y-78917999D03*
X17654978Y-78917999D03*
%TD*%
D21*
%TO.C,D12*%
X36595909Y-65328999D03*
X35895886Y-65328999D03*
%TD*%
D30*
%TO.C,U39*%
X23547016Y-48686030D03*
D31*
X25831999Y-41838953D03*
D30*
X28116983Y-48687046D03*
%TD*%
D25*
%TO.C,C13*%
X50977999Y-36647319D03*
X50977999Y-36098680D03*
%TD*%
D20*
%TO.C,R52*%
X85648999Y-22644553D03*
X85648999Y-22161446D03*
%TD*%
D13*
%TO.C,C25*%
X17978319Y-54660999D03*
X17429680Y-54660999D03*
%TD*%
%TO.C,C34*%
X56291680Y-15544999D03*
X56840319Y-15544999D03*
%TD*%
D29*
%TO.C,D11*%
X17626021Y-58597999D03*
X14225978Y-58597999D03*
%TD*%
D32*
%TO.C,C15*%
X39714115Y-67741999D03*
X38873884Y-67741999D03*
%TD*%
D33*
%TO.C,C55*%
X90849395Y-49072999D03*
X87814604Y-49072999D03*
%TD*%
D20*
%TO.C,R49*%
X79425999Y-22644553D03*
X79425999Y-22161446D03*
%TD*%
D34*
%TO.C,C7*%
X81420916Y-42849999D03*
X82511083Y-42849999D03*
%TD*%
D35*
%TO.C,C20*%
X16323002Y-88442999D03*
X18322997Y-88442999D03*
%TD*%
D12*
%TO.C,R67*%
X89979446Y-17068999D03*
X90462553Y-17068999D03*
%TD*%
D25*
%TO.C,C16*%
X67995999Y-57983319D03*
X67995999Y-57434680D03*
%TD*%
D12*
%TO.C,R63*%
X79286553Y-18592999D03*
X78803446Y-18592999D03*
%TD*%
D36*
%TO.C,SW2*%
X53576927Y-25360068D03*
X53576927Y-29859931D03*
X51427072Y-25360068D03*
X51427072Y-29859931D03*
%TD*%
D12*
%TO.C,R64*%
X90462553Y-18084999D03*
X89979446Y-18084999D03*
%TD*%
D34*
%TO.C,C42*%
X88607083Y-22910999D03*
X87516916Y-22910999D03*
%TD*%
D37*
%TO.C,F3*%
X29900000Y-73054995D03*
X29900000Y-75945006D03*
%TD*%
D23*
%TO.C,R21*%
X97443997Y-59740999D03*
X95444002Y-59740999D03*
%TD*%
D12*
%TO.C,R28*%
X48196446Y-42595999D03*
X48679553Y-42595999D03*
%TD*%
D38*
%TO.C,D16*%
X98223015Y-11607999D03*
X93902984Y-11607999D03*
%TD*%
D23*
%TO.C,R10*%
X19338997Y-82346999D03*
X17339002Y-82346999D03*
%TD*%
D12*
%TO.C,R2*%
X77635553Y-49072999D03*
X77152446Y-49072999D03*
%TD*%
D39*
%TO.C,Q4*%
X42094984Y-17764959D03*
X42094984Y-15865040D03*
X39795015Y-16814999D03*
%TD*%
D40*
%TO.C,U36*%
X54970000Y-60300006D03*
X52430001Y-60300006D03*
X52430001Y-66299993D03*
X54970000Y-66299993D03*
%TD*%
D20*
%TO.C,R50*%
X83235999Y-22644553D03*
X83235999Y-22161446D03*
%TD*%
D41*
%TO.C,R41*%
X25146637Y-51300000D03*
X26653364Y-51300000D03*
%TD*%
D20*
%TO.C,R42*%
X56999999Y-53741553D03*
X56999999Y-53258446D03*
%TD*%
D12*
%TO.C,R23*%
X27622446Y-55041999D03*
X28105553Y-55041999D03*
%TD*%
D34*
%TO.C,C40*%
X66763083Y-13512999D03*
X65672916Y-13512999D03*
%TD*%
D42*
%TO.C,L3*%
X54923001Y-17449999D03*
X55922998Y-17449999D03*
%TD*%
D12*
%TO.C,R4*%
X79159553Y-49072999D03*
X78676446Y-49072999D03*
%TD*%
D17*
%TO.C,F2*%
X58454993Y-75400000D03*
X61345004Y-75400000D03*
%TD*%
D40*
%TO.C,U31*%
X62269999Y-60300006D03*
X59730000Y-60300006D03*
X59730000Y-66299993D03*
X62269999Y-66299993D03*
%TD*%
D12*
%TO.C,R34*%
X39341553Y-13400000D03*
X38858446Y-13400000D03*
%TD*%
D43*
%TO.C,C1*%
X97847603Y-89839999D03*
X93262396Y-89839999D03*
%TD*%
D27*
%TO.C,C10*%
X52501999Y-33087002D03*
X52501999Y-35086997D03*
%TD*%
D20*
%TO.C,R58*%
X89077999Y-39941446D03*
X89077999Y-40424553D03*
%TD*%
D44*
%TO.C,Q13*%
X55649958Y-52350015D03*
X53750039Y-52350015D03*
X54699998Y-54649984D03*
%TD*%
D20*
%TO.C,R59*%
X50088999Y-20510446D03*
X50088999Y-20993553D03*
%TD*%
D25*
%TO.C,C43*%
X60756999Y-25217319D03*
X60756999Y-24668680D03*
%TD*%
D26*
%TO.C,Q3*%
X27187343Y-71104959D03*
X27187343Y-69205040D03*
X24984656Y-70154999D03*
%TD*%
D20*
%TO.C,R40*%
X44373999Y-17208446D03*
X44373999Y-17691553D03*
%TD*%
D45*
%TO.C,C12*%
X54787999Y-36537083D03*
X54787999Y-35446916D03*
%TD*%
D21*
%TO.C,D8*%
X41865090Y-65709999D03*
X42565113Y-65709999D03*
%TD*%
D13*
%TO.C,C49*%
X52776319Y-31165999D03*
X52227680Y-31165999D03*
%TD*%
D20*
%TO.C,R60*%
X54787999Y-24422553D03*
X54787999Y-23939446D03*
%TD*%
%TO.C,R3*%
X86029999Y-45631553D03*
X86029999Y-45148446D03*
%TD*%
D25*
%TO.C,C35*%
X58851999Y-14041319D03*
X58851999Y-13492680D03*
%TD*%
D12*
%TO.C,R13*%
X23279553Y-81330999D03*
X22796446Y-81330999D03*
%TD*%
D13*
%TO.C,C37*%
X53751680Y-16814999D03*
X54300319Y-16814999D03*
%TD*%
D25*
%TO.C,L2*%
X56565999Y-14549319D03*
X56565999Y-14000680D03*
%TD*%
D12*
%TO.C,R9*%
X40170553Y-61899999D03*
X39687446Y-61899999D03*
%TD*%
D26*
%TO.C,Q15*%
X55201343Y-70949959D03*
X55201343Y-69050040D03*
X52998656Y-69999999D03*
%TD*%
D46*
%TO.C,R24*%
X40899998Y-29133784D03*
X40899998Y-31066215D03*
%TD*%
D20*
%TO.C,R1*%
X86029999Y-44107553D03*
X86029999Y-43624446D03*
%TD*%
D47*
%TO.C,FB2*%
X71932999Y-42918579D03*
X71932999Y-39733420D03*
%TD*%
D12*
%TO.C,R66*%
X89979446Y-20116999D03*
X90462553Y-20116999D03*
%TD*%
D38*
%TO.C,D2*%
X79173015Y-46786999D03*
X74852984Y-46786999D03*
%TD*%
D25*
%TO.C,C45*%
X92379999Y-43718680D03*
X92379999Y-44267319D03*
%TD*%
D12*
%TO.C,R22*%
X32958445Y-55899999D03*
X33441552Y-55899999D03*
%TD*%
%TO.C,R12*%
X35090553Y-61010999D03*
X34607446Y-61010999D03*
%TD*%
D48*
%TO.C,D22*%
X34900000Y-45550057D03*
X34900000Y-39049944D03*
%TD*%
D46*
%TO.C,R30*%
X40899998Y-33433783D03*
X40899998Y-35366214D03*
%TD*%
D12*
%TO.C,R19*%
X12484553Y-56438999D03*
X12001446Y-56438999D03*
%TD*%
D26*
%TO.C,Q7*%
X60601343Y-71149960D03*
X60601343Y-69250041D03*
X58398656Y-70200000D03*
%TD*%
D20*
%TO.C,R25*%
X62299998Y-59041554D03*
X62299998Y-58558447D03*
%TD*%
D49*
%TO.C,D5*%
X45390024Y-39052928D03*
X45390024Y-43853019D03*
%TD*%
D50*
%TO.C,U37*%
X36245999Y-13993060D03*
X33705999Y-13993060D03*
X31166000Y-13993060D03*
X31166000Y-23192939D03*
X33705999Y-23192939D03*
X36245999Y-23192939D03*
%TD*%
D13*
%TO.C,C9*%
X70261680Y-33832999D03*
X70810319Y-33832999D03*
%TD*%
D51*
%TO.C,Q1*%
X30972959Y-69180656D03*
X29073040Y-69180656D03*
X30022999Y-71383343D03*
%TD*%
D13*
%TO.C,C38*%
X55402680Y-16560999D03*
X55951319Y-16560999D03*
%TD*%
D20*
%TO.C,R26*%
X65899999Y-54241554D03*
X65899999Y-53758447D03*
%TD*%
D12*
%TO.C,R8*%
X29121553Y-80314999D03*
X28638446Y-80314999D03*
%TD*%
%TO.C,R6*%
X14389553Y-81076999D03*
X13906446Y-81076999D03*
%TD*%
D19*
%TO.C,D19*%
X48908693Y-79699999D03*
X54091308Y-79699999D03*
%TD*%
D20*
%TO.C,R55*%
X56565999Y-24422553D03*
X56565999Y-23939446D03*
%TD*%
D52*
%TO.C,R35*%
X32734195Y-30276999D03*
X29851804Y-30276999D03*
%TD*%
D32*
%TO.C,C24*%
X18505115Y-56438999D03*
X17664884Y-56438999D03*
%TD*%
D13*
%TO.C,C26*%
X91089680Y-65201999D03*
X91638319Y-65201999D03*
%TD*%
D53*
%TO.C,U45*%
X90649091Y-41084039D03*
X90649091Y-41584165D03*
X90649091Y-42084036D03*
X90649091Y-42584162D03*
X93349110Y-42584162D03*
X93349110Y-42084036D03*
X93349110Y-41584165D03*
X93349110Y-41084039D03*
%TD*%
D54*
%TO.C,D10*%
X34213999Y-69470978D03*
X34213999Y-72871021D03*
%TD*%
D12*
%TO.C,R48*%
X65658446Y-49699998D03*
X66141553Y-49699998D03*
%TD*%
D44*
%TO.C,Q10*%
X48049958Y-52450014D03*
X46150039Y-52450014D03*
X47099998Y-54749983D03*
%TD*%
D42*
%TO.C,L4*%
X60621998Y-14401999D03*
X59622001Y-14401999D03*
%TD*%
D32*
%TO.C,C21*%
X39587115Y-64693999D03*
X38746884Y-64693999D03*
%TD*%
D25*
%TO.C,C8*%
X71932999Y-45156319D03*
X71932999Y-44607680D03*
%TD*%
D55*
%TO.C,D14*%
X97520959Y-61535028D03*
X95621040Y-61535028D03*
X96570999Y-63535023D03*
%TD*%
D13*
%TO.C,C53*%
X78770680Y-17576999D03*
X79319319Y-17576999D03*
%TD*%
D20*
%TO.C,R56*%
X63931999Y-25946553D03*
X63931999Y-25463446D03*
%TD*%
D12*
%TO.C,R29*%
X65558446Y-52600000D03*
X66041553Y-52600000D03*
%TD*%
D56*
%TO.C,U29*%
X44741030Y-35143893D03*
X47040999Y-35143893D03*
X49340969Y-35143893D03*
D57*
X47040999Y-29474106D03*
%TD*%
D40*
%TO.C,U34*%
X30276999Y-60551006D03*
X27737000Y-60551006D03*
X27737000Y-66550993D03*
X30276999Y-66550993D03*
%TD*%
D13*
%TO.C,C19*%
X34701680Y-58343999D03*
X35250319Y-58343999D03*
%TD*%
%TO.C,C51*%
X64079319Y-12877999D03*
X63530680Y-12877999D03*
%TD*%
D25*
%TO.C,C47*%
X60375999Y-28392319D03*
X60375999Y-27843680D03*
%TD*%
D20*
%TO.C,R27*%
X28117999Y-56807553D03*
X28117999Y-56324446D03*
%TD*%
D58*
%TO.C,U47*%
X73456999Y-16332908D03*
X72186999Y-16332908D03*
X70917000Y-16332908D03*
X69647000Y-16332908D03*
X69647000Y-23393091D03*
X70917000Y-23393091D03*
X72186999Y-23393091D03*
X73456999Y-23393091D03*
%TD*%
D19*
%TO.C,D18*%
X41008693Y-79599999D03*
X46191308Y-79599999D03*
%TD*%
D20*
%TO.C,R54*%
X93400000Y-43758447D03*
X93400000Y-44241554D03*
%TD*%
%TO.C,R32*%
X47999999Y-59041554D03*
X47999999Y-58558447D03*
%TD*%
%TO.C,R51*%
X81330999Y-22644553D03*
X81330999Y-22161446D03*
%TD*%
%TO.C,R57*%
X88061999Y-39941446D03*
X88061999Y-40424553D03*
%TD*%
D12*
%TO.C,R5*%
X27724553Y-81838999D03*
X27241446Y-81838999D03*
%TD*%
D59*
%TO.C,U30*%
X89332000Y-63185493D03*
X90602000Y-63185493D03*
X91871999Y-63185493D03*
X93141999Y-63185493D03*
X93141999Y-57820506D03*
X91871999Y-57820506D03*
X90602000Y-57820506D03*
X89332000Y-57820506D03*
%TD*%
D39*
%TO.C,Q2*%
X29635015Y-54981040D03*
X29635015Y-56880959D03*
X31934984Y-55930999D03*
%TD*%
D36*
%TO.C,SW1*%
X58402927Y-25487068D03*
X58402927Y-29986931D03*
X56253072Y-25487068D03*
X56253072Y-29986931D03*
%TD*%
D32*
%TO.C,C18*%
X21807115Y-75996999D03*
X20966884Y-75996999D03*
%TD*%
D35*
%TO.C,C3*%
X78850656Y-41793994D03*
X76850661Y-41793994D03*
%TD*%
D25*
%TO.C,C44*%
X91363999Y-44267319D03*
X91363999Y-43718680D03*
%TD*%
D60*
%TO.C,U28*%
X81905040Y-47551031D03*
X82854999Y-47551031D03*
X83804959Y-47551031D03*
X83804959Y-45260968D03*
X82854999Y-45260968D03*
X81905040Y-45260968D03*
%TD*%
D20*
%TO.C,R36*%
X49399999Y-53941554D03*
X49399999Y-53458447D03*
%TD*%
D12*
%TO.C,R17*%
X70802446Y-59867999D03*
X71285553Y-59867999D03*
%TD*%
%TO.C,R14*%
X12484553Y-58597999D03*
X12001446Y-58597999D03*
%TD*%
D17*
%TO.C,F5*%
X49954995Y-75400000D03*
X52845006Y-75400000D03*
%TD*%
D23*
%TO.C,R18*%
X13656002Y-62026999D03*
X15655997Y-62026999D03*
%TD*%
D13*
%TO.C,C39*%
X66111319Y-14655999D03*
X65562680Y-14655999D03*
%TD*%
D26*
%TO.C,Q8*%
X64101344Y-71149960D03*
X64101344Y-69250041D03*
X61898657Y-70200000D03*
%TD*%
D40*
%TO.C,U32*%
X47869999Y-60300006D03*
X45330000Y-60300006D03*
X45330000Y-66299993D03*
X47869999Y-66299993D03*
%TD*%
D19*
%TO.C,D15*%
X57008691Y-79699999D03*
X62191306Y-79699999D03*
%TD*%
D35*
%TO.C,C14*%
X24894993Y-87934999D03*
X22894998Y-87934999D03*
%TD*%
D61*
%TO.C,U33*%
X41135118Y-48386057D03*
X39865119Y-48386057D03*
X39865119Y-54585942D03*
X41135118Y-54585942D03*
%TD*%
D20*
%TO.C,R39*%
X44500999Y-19850553D03*
X44500999Y-19367446D03*
%TD*%
D12*
%TO.C,R16*%
X25844446Y-80314999D03*
X26327553Y-80314999D03*
%TD*%
D62*
%TO.C,RF1*%
X58066123Y-10477065D03*
D63*
X56565999Y-11976934D03*
D62*
X55065876Y-10477065D03*
%TD*%
D64*
%TO.C,CARD1*%
X82245780Y-28600981D03*
X82245780Y-29701055D03*
X82245780Y-30801129D03*
X82245780Y-31900948D03*
X82245780Y-33001022D03*
X82245780Y-34101096D03*
X82245780Y-35200916D03*
X82245780Y-36300990D03*
D65*
X76546021Y-24921029D03*
X76546021Y-38680970D03*
X84845978Y-38680970D03*
X84845978Y-24921029D03*
%TD*%
D66*
%TO.C,U48*%
X60501966Y-12259548D03*
X61618818Y-13103805D03*
X62282032Y-12226451D03*
X61165180Y-11382194D03*
%TD*%
D12*
%TO.C,R33*%
X49258446Y-52299998D03*
X49741553Y-52299998D03*
%TD*%
D35*
%TO.C,C17*%
X10227002Y-81584999D03*
X12226997Y-81584999D03*
%TD*%
D67*
%TO.C,L1*%
X76619808Y-44119999D03*
X78676191Y-44119999D03*
%TD*%
D68*
%TO.C,U44*%
X57984463Y-17135929D03*
X57984463Y-17535979D03*
X57984463Y-17936029D03*
X57984463Y-18335825D03*
X57984463Y-18735875D03*
X57984463Y-19135925D03*
X57984463Y-19535975D03*
X57984463Y-19936024D03*
X57984463Y-20335820D03*
X57984463Y-20735870D03*
X57984463Y-21135920D03*
X57984463Y-21535970D03*
X57984463Y-21936020D03*
X57984463Y-22335816D03*
D69*
X58792183Y-23143536D03*
X59191979Y-23143536D03*
X59592029Y-23143536D03*
X59992079Y-23143536D03*
X60392129Y-23143536D03*
X60792179Y-23143536D03*
X61191975Y-23143536D03*
X61592024Y-23143536D03*
X61992074Y-23143536D03*
X62392124Y-23143536D03*
X62792174Y-23143536D03*
X63191970Y-23143536D03*
X63592020Y-23143536D03*
X63992070Y-23143536D03*
D68*
X64799536Y-22335816D03*
X64799536Y-21936020D03*
X64799536Y-21535970D03*
X64799536Y-21135920D03*
X64799536Y-20735870D03*
X64799536Y-20335820D03*
X64799536Y-19936024D03*
X64799536Y-19535975D03*
X64799536Y-19135925D03*
X64799536Y-18735875D03*
X64799536Y-18335825D03*
X64799536Y-17936029D03*
X64799536Y-17535979D03*
X64799536Y-17135929D03*
D69*
X63992070Y-16328463D03*
X63592020Y-16328463D03*
X63191970Y-16328463D03*
X62792174Y-16328463D03*
X62392124Y-16328463D03*
X61992074Y-16328463D03*
X61592024Y-16328463D03*
X61191975Y-16328463D03*
X60792179Y-16328463D03*
X60392129Y-16328463D03*
X59992079Y-16328463D03*
X59592029Y-16328463D03*
X59191979Y-16328463D03*
X58792183Y-16328463D03*
D70*
X61392126Y-19735872D03*
%TD*%
D44*
%TO.C,Q9*%
X64549958Y-52650016D03*
X62650039Y-52650016D03*
X63599998Y-54949985D03*
%TD*%
D54*
%TO.C,D6*%
X37261999Y-69470978D03*
X37261999Y-72871021D03*
%TD*%
D35*
%TO.C,C23*%
X19846997Y-62153999D03*
X17847002Y-62153999D03*
%TD*%
D33*
%TO.C,C6*%
X76130604Y-66852999D03*
X79165395Y-66852999D03*
%TD*%
D45*
%TO.C,C2*%
X80314999Y-46951083D03*
X80314999Y-45860916D03*
%TD*%
D46*
%TO.C,R31*%
X40899998Y-37933785D03*
X40899998Y-39866216D03*
%TD*%
D27*
%TO.C,C11*%
X45897999Y-23308002D03*
X45897999Y-25307997D03*
%TD*%
D34*
%TO.C,C54*%
X91020083Y-13385999D03*
X89929916Y-13385999D03*
%TD*%
D26*
%TO.C,Q14*%
X52001342Y-70949959D03*
X52001342Y-69050040D03*
X49798655Y-69999999D03*
%TD*%
D71*
%TO.C,D1*%
X80937071Y-70155025D03*
X76136980Y-70155025D03*
%TD*%
D23*
%TO.C,R7*%
X24578002Y-84505999D03*
X26577997Y-84505999D03*
%TD*%
M02*
