M48
; DRILL file KiCad 10.0.6 date 2026-10-04T17:55:46
; FORMAT={-:-/ absolute / metric / decimal}
; #@! TF.CreationDate,2026-10-04T17:55:46-05:00
; #@! TF.GenerationSoftware,Kicad,Pcbnew,10.0.6
; #@! TF.FileFunction,Plated,1,6,PTH
FMAT,2
METRIC
; #@! TA.AperFunction,Plated,PTH,ViaDrill
T1C0.300
; #@! TA.AperFunction,Plated,PTH,ViaDrill
T2C0.305
; #@! TA.AperFunction,Plated,PTH,ViaDrill
T3C0.400
; #@! TA.AperFunction,Plated,PTH,ViaDrill
T4C0.410
; #@! TA.AperFunction,Plated,PTH,ViaDrill
T5C0.500
; #@! TA.AperFunction,Plated,PTH,ComponentDrill
T6C0.600
; #@! TA.AperFunction,Plated,PTH,ViaDrill
T7C0.700
; #@! TA.AperFunction,Plated,PTH,ComponentDrill
T8C1.000
; #@! TA.AperFunction,Plated,PTH,ComponentDrill
T9C1.020
; #@! TA.AperFunction,Plated,PTH,ComponentDrill
T10C1.100
; #@! TA.AperFunction,Plated,PTH,ComponentDrill
T11C1.450
; #@! TA.AperFunction,Plated,PTH,ComponentDrill
T12C1.600
; #@! TA.AperFunction,Plated,PTH,ComponentDrill
T13C4.200
%
G90
G05
T1
X9.449Y-73.203
X9.576Y-80.188
X9.576Y-86.774
X14.275Y-82.982
X14.656Y-86.792
X17.45Y-55.43
X19.99Y-75.997
X24.054Y-81.331
X24.943Y-60.249
X26.594Y-75.489
X26.975Y-55.042
X27.483Y-80.315
X27.9Y-75.4
X28.499Y-81.839
X33.198Y-72.949
X33.833Y-58.344
X33.833Y-62.662
X34.214Y-55.423
X35.865Y-61.011
X36.119Y-73.076
X37.625Y-64.694
X38.786Y-29.515
X38.913Y-56.82
X39.5Y-46.914
X40.564Y-65.837
X40.818Y-13.259
X40.945Y-59.995
X41.199Y-61.9
X41.58Y-53.137
X41.834Y-57.582
X43.926Y-43.797
X44.628Y-36.881
X44.77Y-32.907
X45.39Y-41.89
X45.39Y-45.771
X45.771Y-37.135
X45.898Y-35.23
X46.1Y-59.9
X46.237Y-81.893
X46.4Y-54.7
X46.445Y-77.1
X47.168Y-43.866
X48.438Y-36.754
X49.448Y-37.008
X49.513Y-21.306
X49.581Y-24.066
X50.216Y-88.062
X51.232Y-19.416
X52.5Y-59.3
X52.6Y-77.1
X53.627Y-21.77
X53.645Y-19.863
X53.772Y-36.881
X54.1Y-54.65
X54.192Y-17.577
X54.809Y-19.73
X55.261Y-25.22
X55.296Y-48.057
X55.832Y-20.849
X56.439Y-21.663
X56.82Y-19.136
X56.82Y-21.034
X56.947Y-36.627
X57.062Y-24.954
X57.201Y-22.336
X57.582Y-36.627
X57.703Y-24.058
X57.725Y-87.808
X57.836Y-23.292
X58.09Y-35.103
X58.471Y-37.897
X58.639Y-21.882
X58.836Y-20.06
X58.838Y-14.656
X58.852Y-19.222
X59.192Y-22.543
X59.8Y-59.2
X59.992Y-22.53
X60.191Y-24.112
X60.392Y-17.069
X60.566Y-37.634
X60.63Y-15.545
X60.884Y-30.15
X61.192Y-17.334
X61.374Y-15.308
X61.392Y-22.217
X61.519Y-23.927
X61.646Y-25.197
X61.992Y-16.942
X62.044Y-22.138
X62.413Y-15.61
X62.789Y-22.276
X63.192Y-16.942
X63.346Y-28.19
X63.349Y-27.483
X63.565Y-22.516
X63.619Y-36.07
X63.794Y-21.387
X64.059Y-19.536
X64.059Y-20.371
X64.059Y-47.549
X64.636Y-14.656
X64.7Y-54.95
X65.309Y-26.615
X65.5Y-58.558
X65.611Y-24.899
X65.621Y-19.396
X65.71Y-20.879
X65.925Y-15.545
X66.409Y-21.704
X66.615Y-26.594
X66.726Y-18.593
X66.726Y-36.754
X66.726Y-37.389
X66.986Y-38.151
X67.4Y-54.1
X67.742Y-38.151
X67.831Y-24.726
X68.121Y-11.31
X68.51Y-38.151
X69.139Y-30.023
X69.2Y-58.558
X69.325Y-11.106
X70.028Y-29.388
X70.663Y-57.455
X70.79Y-49.2
X70.917Y-15.037
X71.182Y-20.89
X71.355Y-57.223
X72.187Y-14.783
X73.688Y-78.104
X74.346Y-56.566
X74.358Y-74.46
X74.6Y-33.706
X74.969Y-75.275
X74.981Y-16.688
X75.235Y-55.931
X75.362Y-16.053
X75.362Y-21.768
X75.362Y-78.791
X76.632Y-48.565
X76.773Y-35.542
X77.648Y-18.593
X78.537Y-40.31
X79.045Y-36.5
X79.172Y-39.675
X79.194Y-40.31
X79.426Y-23.673
X79.901Y-16.593
X79.934Y-20.625
X79.963Y-17.577
X80.188Y-49.433
X80.315Y-30.785
X80.528Y-37.931
X80.696Y-27.483
X80.696Y-48.311
X80.715Y-33.09
X82.22Y-24.308
X82.242Y-25.736
X82.246Y-27.483
X82.474Y-48.692
X82.601Y-37.897
X82.991Y-46.406
X83.109Y-17.45
X83.109Y-19.355
X83.124Y-18.593
X83.236Y-23.673
X83.744Y-31.166
X83.805Y-48.438
X83.919Y-26.967
X83.919Y-28.372
X83.919Y-46.406
X84.252Y-29.701
X84.359Y-18.596
X84.379Y-17.45
X84.379Y-19.355
X84.379Y-32.055
X84.379Y-34.087
X84.76Y-26.975
X84.76Y-28.372
X84.76Y-42.85
X84.887Y-35.23
X84.887Y-37.516
X85.313Y-18.596
X85.649Y-23.165
X86.03Y-46.406
X86.03Y-47.168
X86.538Y-42.85
X86.767Y-40.27
X86.919Y-37.389
X87.046Y-39.421
X87.681Y-17.577
X87.681Y-20.593
X87.681Y-67.615
X87.808Y-18.593
X88.189Y-64.059
X88.443Y-18.339
X88.581Y-39.688
X88.697Y-9.703
X88.824Y-16.434
X89.078Y-20.752
X89.078Y-41.199
X89.332Y-18.085
X89.793Y-40.977
X90.094Y-27.483
X90.348Y-24.308
X90.602Y-44.247
X90.602Y-56.439
X90.856Y-9.703
X91.364Y-14.91
X91.745Y-66.345
X91.872Y-56.439
X92.133Y-40.299
X93.015Y-24.562
X93.142Y-9.703
X94.412Y-16.688
X94.92Y-22.911
X95.809Y-9.703
X97.587Y-57.963
X98.084Y-18.847
X98.095Y-9.703
X98.095Y-16.942
X98.095Y-21.006
X98.73Y-27.483
T2
X9.576Y-54.153
X9.576Y-56.185
X9.576Y-60.267
X9.576Y-64.605
X9.576Y-68.687
X12.624Y-53.518
X14.91Y-54.661
X15.799Y-53.518
X18.985Y-53.518
X19.863Y-18.974
X21.396Y-18.974
X21.953Y-53.518
X22.929Y-18.974
X24.435Y-97.968
X24.462Y-18.974
X25.047Y-54.153
X25.995Y-18.974
X26.34Y-56.82
X27.528Y-18.974
X28.141Y-54.153
X29.061Y-18.974
X30.595Y-18.974
X31.235Y-54.153
X32.127Y-18.957
X33.66Y-18.957
X34.329Y-54.153
X35.194Y-18.974
X36.727Y-18.974
X37.423Y-54.153
X38.26Y-18.974
X39.548Y-54.026
X39.793Y-18.974
X41.326Y-18.974
X43.358Y-16.053
X43.993Y-50.089
X43.993Y-51.994
X44.501Y-22.022
X44.501Y-23.038
X44.501Y-25.197
X44.501Y-27.61
X44.501Y-30.15
X46.0Y-73.2
X47.961Y-21.011
X48.4Y-73.2
X48.441Y-50.091
X48.829Y-22.97
X48.946Y-24.943
X49.2Y-93.777
X49.2Y-97.206
X49.454Y-25.832
X49.581Y-25.197
X49.962Y-59.487
X50.089Y-22.97
X50.978Y-31.166
X51.3Y-54.0
X52.502Y-50.851
X52.502Y-82.093
X52.629Y-16.434
X53.01Y-15.799
X54.153Y-9.576
X54.153Y-10.211
X54.153Y-10.846
X54.153Y-11.481
X54.153Y-46.66
X54.28Y-12.116
X54.788Y-15.291
X54.973Y-12.091
X55.042Y-12.751
X55.169Y-13.386
X55.423Y-15.545
X55.609Y-12.218
X55.677Y-13.767
X55.804Y-14.402
X55.804Y-15.037
X56.0Y-73.4
X56.721Y-16.307
X56.721Y-16.942
X57.424Y-54.825
X57.455Y-13.386
X57.455Y-14.021
X57.455Y-14.656
X57.582Y-12.751
X57.709Y-12.116
X57.773Y-15.62
X57.963Y-15.037
X58.344Y-11.989
X58.569Y-28.399
X58.852Y-12.624
X58.946Y-9.576
X58.979Y-10.211
X58.979Y-10.846
X58.979Y-11.989
X59.36Y-11.481
X59.438Y-13.005
X59.614Y-9.703
X59.614Y-10.338
X59.741Y-10.973
X60.831Y-13.583
X61.265Y-9.449
X61.392Y-10.211
X61.6Y-53.8
X61.9Y-10.592
X62.408Y-13.767
X62.535Y-10.973
X62.789Y-13.259
X63.043Y-11.354
X63.551Y-11.862
X63.6Y-73.1
X64.186Y-11.862
X67.488Y-59.233
X67.615Y-15.496
X67.996Y-34.087
X68.123Y-16.61
X68.25Y-15.496
X68.758Y-15.08
X68.758Y-16.61
X69.012Y-50.724
X69.393Y-27.864
X70.028Y-60.503
X70.917Y-31.547
X71.171Y-12.751
X71.298Y-37.643
X71.298Y-38.405
X71.978Y-46.107
X72.187Y-12.751
X73.711Y-27.864
X75.235Y-20.371
X75.997Y-20.033
X76.886Y-45.898
X76.886Y-46.709
X76.98Y-47.422
X77.14Y-31.547
X77.521Y-47.93
X77.775Y-64.694
X78.132Y-48.116
X78.156Y-16.434
X78.791Y-50.724
X78.791Y-54.026
X78.813Y-48.276
X79.934Y-61.646
X80.492Y-24.308
X80.696Y-12.751
X81.331Y-62.789
X81.331Y-64.186
X81.432Y-56.058
X89.713Y-64.821
X92.253Y-13.259
X93.777Y-66.726
X94.793Y-13.386
X94.92Y-27.483
X97.206Y-24.435
X98.476Y-66.218
T3
X89.84Y-88.824
T4
X46.055Y-26.787
X53.882Y-35.191
T5
X31.166Y-25.555
X31.166Y-43.357
X33.786Y-48.184
X35.67Y-48.17
X37.393Y-48.184
X96.698Y-11.735
T6
X93.095Y-14.522
X93.095Y-23.172
X97.295Y-14.522
X97.295Y-23.172
T7
X65.456Y-77.394
T8
X25.959Y-29.555
X25.959Y-34.555
X47.041Y-48.311
X49.581Y-48.311
X49.708Y-13.005
X52.248Y-13.005
X80.188Y-55.042
X85.268Y-55.042
T9
X91.745Y-53.01
X94.285Y-53.01
X96.825Y-53.01
T10
X34.341Y-10.465
X36.881Y-10.465
X39.421Y-10.465
X41.961Y-10.465
X44.501Y-10.465
X47.041Y-10.465
X49.581Y-10.465
X56.439Y-33.071
X58.979Y-33.071
X61.519Y-33.071
X64.059Y-33.071
X71.171Y-82.601
X71.171Y-85.141
X73.711Y-82.601
X73.711Y-85.141
X74.346Y-10.465
X76.251Y-82.601
X76.251Y-85.141
X76.886Y-10.465
X78.791Y-82.601
X78.791Y-85.141
X79.426Y-10.465
X81.331Y-82.601
X81.331Y-85.141
X81.966Y-10.465
X83.871Y-82.601
X83.871Y-85.141
X84.506Y-10.465
X86.411Y-82.601
X86.411Y-85.141
X87.046Y-10.465
X97.714Y-41.326
X97.714Y-43.866
X97.714Y-46.406
X97.714Y-48.946
T11
X11.989Y-91.237
X11.989Y-96.317
X12.116Y-85.268
X13.132Y-65.329
X13.132Y-70.282
X14.275Y-37.643
X14.275Y-48.184
X17.196Y-85.268
X17.704Y-91.237
X17.704Y-96.317
X18.212Y-65.329
X18.212Y-70.282
X19.355Y-37.643
X19.355Y-48.184
X20.625Y-22.022
X23.419Y-91.237
X23.419Y-96.317
X25.705Y-22.022
X29.134Y-91.237
X29.134Y-96.317
X34.849Y-91.237
X34.849Y-96.317
X40.564Y-91.237
X40.564Y-96.317
X46.279Y-91.237
X46.279Y-96.317
X52.83Y-90.987
X52.83Y-96.067
X59.106Y-90.983
X59.106Y-96.063
X65.354Y-90.983
X65.354Y-96.063
X71.019Y-90.943
X71.019Y-96.023
X76.937Y-91.11
X76.937Y-96.19
X82.728Y-91.11
X82.728Y-96.19
X90.856Y-71.298
X90.856Y-76.378
X90.856Y-80.95
X90.856Y-85.903
X95.936Y-71.298
X95.936Y-76.378
X95.936Y-80.95
X95.936Y-85.903
T12
X57.836Y-42.85
X61.646Y-42.85
X65.456Y-42.85
T13
X35.611Y-78.283
M30
