%TF.GenerationSoftware,KiCad,Pcbnew,10.0.6*%
%TF.CreationDate,2026-10-04T17:55:45-05:00*%
%TF.ProjectId,GoodmanHP,476f6f64-6d61-46e4-9850-2e6b69636164,rev?*%
%TF.SameCoordinates,Original*%
%TF.FileFunction,Soldermask,Bot*%
%TF.FilePolarity,Negative*%
%FSLAX46Y46*%
G04 Gerber Fmt 4.6, Leading zero omitted, Abs format (unit mm)*
G04 Created by KiCad (PCBNEW 10.0.6) date 2026-10-04 17:55:45*
%MOMM*%
%LPD*%
G01*
G04 APERTURE LIST*
G04 Aperture macros list*
%AMRoundRect*
0 Rectangle with rounded corners*
0 $1 Rounding radius*
0 $2 $3 $4 $5 $6 $7 $8 $9 X,Y pos of 4 corners*
0 Add a 4 corners polygon primitive as box body*
4,1,4,$2,$3,$4,$5,$6,$7,$8,$9,$2,$3,0*
0 Add four circle primitives for the rounded corners*
1,1,$1+$1,$2,$3*
1,1,$1+$1,$4,$5*
1,1,$1+$1,$6,$7*
1,1,$1+$1,$8,$9*
0 Add four rect primitives between the rounded corners*
20,1,$1+$1,$2,$3,$4,$5,0*
20,1,$1+$1,$4,$5,$6,$7,0*
20,1,$1+$1,$6,$7,$8,$9,0*
20,1,$1+$1,$8,$9,$2,$3,0*%
G04 Aperture macros list end*
%ADD10O,1.999996X1.099997*%
%ADD11O,1.799996X1.199997*%
%ADD12C,2.199995*%
%ADD13C,4.250000*%
%ADD14C,1.599996*%
%ADD15R,1.699996X1.699996*%
%ADD16C,1.699996*%
%ADD17C,0.700000*%
%ADD18C,5.999988*%
%ADD19R,1.574800X1.699996*%
%ADD20R,2.499994X2.499994*%
%ADD21C,2.499994*%
%ADD22RoundRect,0.759993X0.759993X0.760006X-0.759993X0.760006X-0.759993X-0.760006X0.759993X-0.760006X0*%
%ADD23RoundRect,0.759993X0.760006X0.759993X-0.760006X0.759993X-0.760006X-0.759993X0.760006X-0.759993X0*%
G04 APERTURE END LIST*
D10*
%TO.C,USB1*%
X93094883Y-23171984D03*
D11*
X97295026Y-23171984D03*
D10*
X93094883Y-14522015D03*
D11*
X97295026Y-14522015D03*
%TD*%
D12*
%TO.C,U10*%
X76936799Y-91110005D03*
X76936799Y-96189994D03*
%TD*%
D13*
%TO.C,MH3*%
X12867970Y-15928539D03*
%TD*%
D12*
%TO.C,U13*%
X82727999Y-91110005D03*
X82727999Y-96189994D03*
%TD*%
%TO.C,U24*%
X13132005Y-65328999D03*
X18211994Y-65328999D03*
%TD*%
D14*
%TO.C,C5*%
X85267999Y-55041999D03*
X80188000Y-55041999D03*
%TD*%
D15*
%TO.C,U43*%
X47041000Y-48310999D03*
D16*
X49580999Y-48310999D03*
%TD*%
D15*
%TO.C,U51*%
X52247999Y-13004999D03*
D16*
X49708000Y-13004999D03*
%TD*%
D12*
%TO.C,U16*%
X90856005Y-71297999D03*
X95935994Y-71297999D03*
%TD*%
%TO.C,U19*%
X90856005Y-76377999D03*
X95935994Y-76377999D03*
%TD*%
D17*
%TO.C,MH5*%
X93615070Y-21736880D03*
%TD*%
D12*
%TO.C,U20*%
X14275005Y-48183999D03*
X19354994Y-48183999D03*
%TD*%
%TO.C,U6*%
X71018599Y-90942658D03*
X71018599Y-96022646D03*
%TD*%
D18*
%TO.C,U50*%
X35611126Y-78282999D03*
%TD*%
D15*
%TO.C,H2*%
X56439000Y-33070999D03*
D16*
X58979000Y-33070999D03*
X61518999Y-33070999D03*
X64058999Y-33070999D03*
%TD*%
D12*
%TO.C,U9*%
X40563999Y-91237005D03*
X40563999Y-96316994D03*
%TD*%
%TO.C,U17*%
X14275005Y-37642999D03*
X19354994Y-37642999D03*
%TD*%
%TO.C,U23*%
X90856005Y-85902999D03*
X95935994Y-85902999D03*
%TD*%
D15*
%TO.C,U46*%
X86410999Y-82601254D03*
D16*
X86410999Y-85140999D03*
X83870999Y-82601000D03*
X83870999Y-85140999D03*
X81330999Y-82601000D03*
X81330999Y-85140999D03*
X78790999Y-82601000D03*
X78790999Y-85140999D03*
X76251000Y-82601000D03*
X76251000Y-85140999D03*
X73711000Y-82601000D03*
X73711000Y-85140999D03*
X71171000Y-82601000D03*
X71171000Y-85140999D03*
%TD*%
D15*
%TO.C,H1*%
X97713999Y-48945999D03*
D16*
X97713999Y-46405999D03*
X97713999Y-43866000D03*
X97713999Y-41326000D03*
%TD*%
D12*
%TO.C,U22*%
X13132005Y-70281999D03*
X18211994Y-70281999D03*
%TD*%
%TO.C,U5*%
X17703999Y-91237005D03*
X17703999Y-96316994D03*
%TD*%
%TO.C,U21*%
X90856005Y-80949999D03*
X95935994Y-80949999D03*
%TD*%
%TO.C,U2*%
X52829786Y-96066976D03*
X52829786Y-90986988D03*
%TD*%
D19*
%TO.C,H3*%
X34341000Y-10464999D03*
D16*
X36881000Y-10464999D03*
X39421000Y-10464999D03*
X41960999Y-10464999D03*
X44500999Y-10464999D03*
X47040999Y-10464999D03*
X49580999Y-10464999D03*
%TD*%
D12*
%TO.C,U12*%
X34848999Y-91237005D03*
X34848999Y-96316994D03*
%TD*%
%TO.C,U1*%
X23418999Y-91237005D03*
X23418999Y-96316994D03*
%TD*%
D13*
%TO.C,MH2*%
X95036970Y-33835539D03*
%TD*%
D17*
%TO.C,MH6*%
X93615080Y-15956860D03*
%TD*%
D12*
%TO.C,U7*%
X59105999Y-96062994D03*
X59105999Y-90983006D03*
%TD*%
%TO.C,U4*%
X65354399Y-90983006D03*
X65354399Y-96062994D03*
%TD*%
%TO.C,U27*%
X20625005Y-22021999D03*
X25704994Y-22021999D03*
%TD*%
%TO.C,U25*%
X29133999Y-91237005D03*
X29133999Y-96316994D03*
%TD*%
%TO.C,U26*%
X46278999Y-91237005D03*
X46278999Y-96316994D03*
%TD*%
D15*
%TO.C,U42*%
X74346000Y-10464999D03*
D16*
X76886000Y-10464999D03*
X79426000Y-10464999D03*
X81965999Y-10464999D03*
X84505999Y-10464999D03*
X87045999Y-10464999D03*
%TD*%
D13*
%TO.C,MH4*%
X12613969Y-76126540D03*
%TD*%
D20*
%TO.C,CN1*%
X57836000Y-42849999D03*
D21*
X61645999Y-42849999D03*
X65455999Y-42849999D03*
%TD*%
D15*
%TO.C,H4*%
X96824999Y-53009999D03*
D16*
X94284999Y-53009999D03*
X91745000Y-53009999D03*
%TD*%
D12*
%TO.C,U18*%
X12116005Y-85267999D03*
X17195994Y-85267999D03*
%TD*%
D13*
%TO.C,MH1*%
X89575970Y-94922540D03*
%TD*%
D15*
%TO.C,U35*%
X25958999Y-34554994D03*
D16*
X25958999Y-29555005D03*
%TD*%
D12*
%TO.C,U15*%
X11988999Y-91237005D03*
X11988999Y-96316994D03*
%TD*%
D22*
%TO.C,U3*%
X87962813Y-92779034D03*
D23*
X87969417Y-97091699D03*
D22*
X91209186Y-97086619D03*
D23*
X91195216Y-92748300D03*
%TD*%
D22*
%TO.C,U14*%
X11000813Y-73983034D03*
D23*
X11007417Y-78295699D03*
D22*
X14247186Y-78290619D03*
D23*
X14233216Y-73952300D03*
%TD*%
D22*
%TO.C,U8*%
X93423813Y-31692034D03*
D23*
X93430417Y-36004699D03*
D22*
X96670186Y-35999619D03*
D23*
X96656216Y-31661300D03*
%TD*%
D22*
%TO.C,U11*%
X11254813Y-13785034D03*
D23*
X11261417Y-18097699D03*
D22*
X14501186Y-18092619D03*
D23*
X14487216Y-13754300D03*
%TD*%
M02*
